<svg version="1.1" id="Layer_1" xmlns="http://www.w3.org/2000/svg" xmlns:xlink="http://www.w3.org/1999/xlink" x="0px" y="0px"
	 width="100%" viewBox="0 0 2000 1500" enable-background="new 0 0 2000 1500" xml:space="preserve">
<path fill="#CF5260" opacity="1.000000" stroke="none" 
	d="
M1046.000000,1501.000000 
	C697.333435,1501.000000 349.166870,1501.000000 1.000234,1501.000000 
	C1.000156,1001.000244 1.000156,501.000519 1.000078,1.000569 
	C667.666199,1.000379 1334.332397,1.000379 2000.999023,1.000190 
	C2000.999268,500.999390 2000.999268,1000.998779 2000.999634,1500.999023 
	C1682.833374,1501.000000 1364.666626,1501.000000 1046.000000,1501.000000 
M1015.466248,1251.000122 
	C1024.868408,1250.333862 1034.277222,1249.750122 1043.671509,1248.986938 
	C1080.666504,1245.981689 1116.885864,1238.881592 1152.218140,1227.568970 
	C1318.694702,1174.266602 1444.115601,1040.144409 1486.450928,870.395020 
	C1493.961914,840.278503 1498.449341,809.695862 1499.913574,778.730652 
	C1500.624268,763.700989 1500.150879,748.606995 1499.949829,733.545593 
	C1499.823730,724.101562 1499.592651,714.629150 1498.742188,705.229797 
	C1495.581421,670.296265 1488.983521,635.999512 1478.379761,602.545776 
	C1445.753174,499.613403 1386.378052,415.386505 1300.064209,350.619019 
	C1214.932251,286.738464 1118.573486,254.150925 1012.312256,251.417328 
	C990.111145,250.846191 967.765625,252.399506 945.610474,254.368225 
	C914.026611,257.174774 882.964905,263.573669 852.868896,273.558929 
	C695.661377,325.717194 587.644104,429.373779 529.722778,584.578674 
	C510.602600,635.812805 501.946564,689.268616 501.073456,743.926453 
	C500.887878,755.543274 501.356934,767.191589 502.038086,778.795288 
	C502.745544,790.847351 503.669312,802.915100 505.204803,814.885315 
	C511.625580,864.938354 524.672913,913.256531 546.406555,958.819336 
	C613.094421,1098.625244 720.870789,1190.476685 869.882874,1233.292847 
	C910.336731,1244.916626 951.865967,1250.348389 993.979614,1250.985596 
	C1000.809998,1251.088989 1007.643372,1251.000122 1015.466248,1251.000122 
z"/>
<path fill="#F0F0F0" opacity="1.000000" stroke="none" 
	d="
M1014.970825,1251.000122 
	C1007.643372,1251.000122 1000.809998,1251.088989 993.979614,1250.985596 
	C951.865967,1250.348389 910.336731,1244.916626 869.882874,1233.292847 
	C720.870789,1190.476685 613.094421,1098.625244 546.406555,958.819336 
	C524.672913,913.256531 511.625580,864.938354 505.204803,814.885315 
	C503.669312,802.915100 502.745544,790.847351 502.038086,778.795288 
	C501.356934,767.191589 500.887878,755.543274 501.073456,743.926453 
	C501.946564,689.268616 510.602600,635.812805 529.722778,584.578674 
	C587.644104,429.373779 695.661377,325.717194 852.868896,273.558929 
	C882.964905,263.573669 914.026611,257.174774 945.610474,254.368225 
	C967.765625,252.399506 990.111145,250.846191 1012.312256,251.417328 
	C1118.573486,254.150925 1214.932251,286.738464 1300.064209,350.619019 
	C1386.378052,415.386505 1445.753174,499.613403 1478.379761,602.545776 
	C1488.983521,635.999512 1495.581421,670.296265 1498.742188,705.229797 
	C1499.592651,714.629150 1499.823730,724.101562 1499.949829,733.545593 
	C1500.150879,748.606995 1500.624268,763.700989 1499.913574,778.730652 
	C1498.449341,809.695862 1493.961914,840.278503 1486.450928,870.395020 
	C1444.115601,1040.144409 1318.694702,1174.266602 1152.218140,1227.568970 
	C1116.885864,1238.881592 1080.666504,1245.981689 1043.671509,1248.986938 
	C1034.277222,1249.750122 1024.868408,1250.333862 1014.970825,1251.000122 
M1193.464966,1037.693115 
	C1193.360352,1037.061768 1193.255737,1036.430298 1192.949585,1035.129395 
	C1138.211060,933.175171 1083.500977,831.205688 1028.631348,729.322144 
	C1026.429443,725.233337 1026.714600,722.433960 1029.030396,718.590698 
	C1078.970703,635.713867 1128.772217,552.753357 1178.586914,469.800842 
	C1179.545532,468.204468 1180.340576,466.509766 1181.572388,464.179077 
	C1178.690796,464.179077 1176.874023,464.179108 1175.057251,464.179108 
	C1143.559204,464.179108 1112.060669,464.263916 1080.563721,464.077942 
	C1076.353882,464.053070 1074.084717,465.352753 1071.940430,468.997894 
	C1021.361450,554.979980 970.664551,640.892700 919.880920,726.754150 
	C917.880493,730.136414 917.664795,732.651672 919.552612,736.226074 
	C953.688416,800.858276 987.672974,865.570435 1021.686462,930.267273 
	C1039.739014,964.604980 1057.782959,998.947266 1075.838135,1033.283569 
	C1077.042725,1035.574341 1077.777710,1037.920776 1081.408081,1037.903442 
	C1118.570557,1037.725708 1155.733887,1037.744507 1193.464966,1037.693115 
M913.002625,702.500000 
	C913.002625,623.240906 913.002625,543.981750 913.002625,464.543823 
	C877.655701,464.543823 842.934875,464.543823 808.155701,464.543823 
	C808.155701,655.739441 808.155701,846.571472 808.155701,1037.541992 
	C843.217346,1037.541992 877.804443,1037.541992 913.002625,1037.541992 
	C913.002625,926.010376 913.002625,814.755188 913.002625,702.500000 
z"/>
<path fill="#CF5260" opacity="1.000000" stroke="none" 
	d="
M1192.896973,1037.708374 
	C1155.733887,1037.744507 1118.570557,1037.725708 1081.408081,1037.903442 
	C1077.777710,1037.920776 1077.042725,1035.574341 1075.838135,1033.283569 
	C1057.782959,998.947266 1039.739014,964.604980 1021.686462,930.267273 
	C987.672974,865.570435 953.688416,800.858276 919.552612,736.226074 
	C917.664795,732.651672 917.880493,730.136414 919.880920,726.754150 
	C970.664551,640.892700 1021.361450,554.979980 1071.940430,468.997894 
	C1074.084717,465.352753 1076.353882,464.053070 1080.563721,464.077942 
	C1112.060669,464.263916 1143.559204,464.179108 1175.057251,464.179108 
	C1176.874023,464.179108 1178.690796,464.179077 1181.572388,464.179077 
	C1180.340576,466.509766 1179.545532,468.204468 1178.586914,469.800842 
	C1128.772217,552.753357 1078.970703,635.713867 1029.030396,718.590698 
	C1026.714600,722.433960 1026.429443,725.233337 1028.631348,729.322144 
	C1083.500977,831.205688 1138.211060,933.175171 1192.993164,1035.780396 
	C1192.990112,1036.857056 1192.943604,1037.282715 1192.896973,1037.708374 
z"/>
<path fill="#CF5260" opacity="1.000000" stroke="none" 
	d="
M913.002625,703.000000 
	C913.002625,814.755188 913.002625,926.010376 913.002625,1037.541992 
	C877.804443,1037.541992 843.217346,1037.541992 808.155701,1037.541992 
	C808.155701,846.571472 808.155701,655.739441 808.155701,464.543823 
	C842.934875,464.543823 877.655701,464.543823 913.002625,464.543823 
	C913.002625,543.981750 913.002625,623.240906 913.002625,703.000000 
z"/>
<path fill="#D87C86" opacity="1.000000" stroke="none" 
	d="
M1193.180908,1037.700684 
	C1192.943604,1037.282715 1192.990112,1036.857056 1193.093994,1036.115234 
	C1193.255737,1036.430298 1193.360352,1037.061768 1193.180908,1037.700684 
z"/>
</svg>